inDegrees=yes
name=ik_Shooting_orientations_bogen
DataType=double
version=3
OpenSimVersion=4.3-2021-08-27-4bc7ad9
endheader
time	pelvis_tilt	pelvis_list	pelvis_rotation	pelvis_tx	pelvis_ty	pelvis_tz	hip_flexion_r	hip_adduction_r	hip_rotation_r	knee_angle_r	knee_angle_r_beta	ankle_angle_r	subtalar_angle_r	mtp_angle_r	hip_flexion_l	hip_adduction_l	hip_rotation_l	knee_angle_l	knee_angle_l_beta	ankle_angle_l	subtalar_angle_l	mtp_angle_l	lumbar_extension	lumbar_bending	lumbar_rotation	arm_flex_r	arm_add_r	arm_rot_r	elbow_flex_r	pro_sup_r	wrist_flex_r	wrist_dev_r	arm_flex_l	arm_add_l	arm_rot_l	elbow_flex_l	pro_sup_l	wrist_flex_l	wrist_dev_l
5	-0.1140020931101626	-0.854529739924563	147.5623658821148	0	0.9399999999999999	0	4.1162477096352	-2.124937769254633	0	13.07499507915787	0.2282017138133614	-1.303042556649012	0	0	4.1162477096352	-2.124937769254633	0	13.07499507915787	0.2282017138133614	-1.303042556649012	0	0	2.207449553637499	-0.0677700946944618	-3.690729759060969	0	-0.4963383309891904	0	17.83694102406302	17.25170312847673	0	0	55.24943505721784	-26.40833073073638	37.61480750231713	0.003528917334743293	17.25170312847673	0	0
5.01	-0.1009316606709346	-0.8482068153392007	147.5839389860338	0	0.9399999999999999	0	4.131580086005866	-2.132503428492524	0	13.0998248898573	0.2286350757627135	-1.307546871598636	0	0	4.131580086005866	-2.132503428492524	0	13.0998248898573	0.2286350757627135	-1.307546871598636	0	0	2.219309344397483	-0.03341681821454643	-3.697705864872938	0	-0.4983424544448837	0	17.87267423181941	17.284243779017	0	0	56.08680326821855	-26.29721764592133	37.77109333653294	0.003454540467130699	17.284243779017	0	0
5.02	-0.1314746853419981	-0.8625948667176693	147.5545811518452	0	0.9399999999999999	0	4.160774621580229	-2.146928501619395	0	13.14703452964137	0.2294590394156258	-1.316137429385629	0	0	4.160774621580229	-2.146928501619395	0	13.14703452964137	0.2294590394156258	-1.316137429385629	0	0	2.162797402950742	-0.08349518906326649	-3.651250830886499	0	-0.5021454265829604	0	17.94074929411836	17.34625278571927	0	0	56.7863777146972	-26.66144367084952	37.93320452633847	0.003426332249711115	17.34625278571927	0	0
5.03	-0.1394780396035161	-0.8645302263573912	147.5597694485411	0	0.9399999999999999	0	4.173595274905142	-2.153251826492447	0	13.16771423801499	0.2298199684150978	-1.319900517122327	0	0	4.173595274905142	-2.153251826492447	0	13.16771423801499	0.2298199684150978	-1.319900517122327	0	0	2.179900639857094	-0.08488592208203377	-3.641542753036309	0	-0.5038218583709462	0	17.97051520671196	17.37334460132008	0	0	56.66133137806669	-27.01109589239037	37.56165190513679	0.003439121596455757	17.37334460132008	0	0
5.04	-0.114855950583204	-0.8760861864364479	147.587390961439	0	0.9399999999999999	0	4.185870521853458	-2.15929248834624	0	13.18747573558568	0.2301648716128313	-1.323492641251374	0	0	4.185870521853458	-2.15929248834624	0	13.18747573558568	0.2301648716128313	-1.323492641251374	0	0	2.21193930491531	-0.05100587755621131	-3.679058568723078	0	-0.5054354742001301	0	17.99889082916479	17.39914994781036	0	0	57.0550754017148	-27.1755703465891	37.46817219157644	0.003413394997070082	17.39914994781036	0	0
5.05	-0.1196893086627537	-0.886120499210358	147.5849005949854	0	0.9399999999999999	0	4.196268942463413	-2.164383992440647	0	13.20416702495565	0.2304561895687403	-1.326515498987343	0	0	4.196268942463413	-2.164383992440647	0	13.20416702495565	0.2304561895687403	-1.326515498987343	0	0	2.222668819594853	-0.07355814088548976	-3.675512435458002	0	-0.5068186414142067	0	18.02272318712665	17.42078703870722	0	0	57.1600664663763	-27.15471682503763	37.32630751698483	0.00339460070325586	17.42078703870722	0	0
5.06	-0.1100988932915981	-0.8605125023408672	147.5789821744265	0	0.9399999999999999	0	4.204790502886658	-2.168580997317568	0	13.21786500776453	0.230695264469637	-1.32901151939752	0	0	4.204790502886658	-2.168580997317568	0	13.21786500776453	0.230695264469637	-1.32901151939752	0	0	2.226679439084059	-0.03093238950410588	-3.638970443581971	0	-0.5079358518610759	0	18.04241746687622	17.43869772182316	0	0	57.02268226672041	-27.44538773756497	37.64017931846821	0.003435425122378241	17.43869772182316	0	0
5.07	-0.1024818120688069	-0.8781253759467985	147.5908624910195	0	0.9399999999999999	0	4.217281550990245	-2.174734102240664	0	13.23792727606058	0.2310454171068214	-1.332670872849634	0	0	4.217281550990245	-2.174734102240664	0	13.23792727606058	0.2310454171068214	-1.332670872849634	0	0	2.233311708974484	-0.05589666046577155	-3.655075364357769	0	-0.5095727895000883	0	18.07127407808836	17.46494104367216	0	0	57.08294473119603	-27.70186575156513	37.8554635256992	0.003452620307421487	17.46494104367216	0	0
5.08	-0.1318843542974293	-0.9069266888087876	147.6065164924242	0	0.9399999999999999	0	4.229724674573195	-2.1808550202766	0	13.25788049240722	0.2313936664284331	-1.336309210571376	0	0	4.229724674573195	-2.1808550202766	0	13.25788049240722	0.2313936664284331	-1.336309210571376	0	0	2.22937720644553	-0.1028982266458971	-3.637128889562546	0	-0.5112084832639735	0	18.0999327409182	17.49098935781743	0	0	57.17124380409379	-27.68263723639303	37.40770938411727	0.00342865811192953	17.49098935781743	0	0
5.09	-0.133322734961992	-0.910608154587111	147.6136696834386	0	0.9399999999999999	0	4.241100988791287	-2.186452684923573	0	13.27610630777684	0.2317117669154935	-1.339636547947219	0	0	4.241100988791287	-2.186452684923573	0	13.27610630777684	0.2317117669154935	-1.339636547947219	0	0	2.226975865837793	-0.1075056843021355	-3.632871017465527	0	-0.5127026852084652	0	18.12612415610205	17.51479478930006	0	0	57.01407162847945	-27.61937196899742	37.33959242443125	0.003437092961214465	17.51479478930006	0	0
5.1	-0.1171560089185687	-0.9221532244271501	147.6237264603013	0	0.9399999999999999	0	4.25164729733181	-2.191628313727049	0	13.29297043170459	0.232006101403497	-1.342710349931973	0	0	4.25164729733181	-2.191628313727049	0	13.29297043170459	0.232006101403497	-1.342710349931973	0	0	2.252825009371739	-0.1009554716855326	-3.630738970336811	0	-0.5140964171475202	0	18.1502893369819	17.53673813976981	0	0	57.03413672112456	-27.62961043765139	37.19165663812741	0.003432102990370201	17.53673813976981	0	0
5.11	-0.09222793236599489	-0.936877430216794	147.6493996628409	0	0.9399999999999999	0	4.263493501447275	-2.197431079226125	0	13.3118830213972	0.2323361883637119	-1.346154414903755	0	0	4.263493501447275	-2.197431079226125	0	13.3118830213972	0.2323361883637119	-1.346154414903755	0	0	2.2708838415148	-0.08037064726174564	-3.649491024495922	0	-0.5156685775855909	0	18.17733636347288	17.56128134175786	0	0	57.24767025762049	-27.64962091344945	37.09324042303104	0.003412481941223149	17.56128134175786	0	0
5.12	-0.1015402840479675	-0.9318040011316316	147.6492203580812	0	0.9399999999999999	0	4.271558355787151	-2.20138503541242	0	13.32475167508406	0.2325607887408465	-1.348501622055355	0	0	4.271558355787151	-2.20138503541242	0	13.32475167508406	0.2325607887408465	-1.348501622055355	0	0	2.284202823282606	-0.07673084459269158	-3.643503129039997	0	-0.5167363834767837	0	18.19576162908137	17.57800370522055	0	0	57.25067005832403	-27.69149791865749	37.14897224356817	0.003414766286058824	17.57800370522055	0	0
5.13	-0.1113393995987607	-0.9365985230294138	147.6702240972202	0	0.9399999999999999	0	4.284348037882529	-2.207666000126379	0	13.34515363871275	0.2329168701800393	-1.352231858561383	0	0	4.284348037882529	-2.207666000126379	0	13.34515363871275	0.2329168701800393	-1.352231858561383	0	0	2.269798161525173	-0.09339819476845339	-3.636794159571541	0	-0.5184225574318386	0	18.22503540522113	17.6045834258367	0	0	57.41507467550387	-27.6611580696513	36.75959859631934	0.003379982602516274	17.6045834258367	0	0
5.14	-0.1123140528775317	-0.9547518466741376	147.6673559610913	0	0.9399999999999999	0	4.295072450439998	-2.21292294721851	0	13.36223345735557	0.2332149692510001	-1.355351961841914	0	0	4.295072450439998	-2.21292294721851	0	13.36223345735557	0.2332149692510001	-1.355351961841914	0	0	2.26303239074639	-0.1105238293833118	-3.629015994736719	0	-0.5198425394948663	0	18.24949478411574	17.62677663607974	0	0	57.41690199050704	-27.61801281310385	36.58994312027292	0.003365721737217054	17.62677663607974	0	0
5.15	-0.1162438300430878	-0.9476621801209556	147.6660685278306	0	0.9399999999999999	0	4.303277608409116	-2.216944749057648	0	13.37529026926958	0.2334428536087131	-1.357738762566002	0	0	4.303277608409116	-2.216944749057648	0	13.37529026926958	0.2334428536087131	-1.357738762566002	0	0	2.263183221903821	-0.1121461163601747	-3.61997781860202	0	-0.5209288062961753	0	18.26819438481081	17.6437414668687	0	0	57.38089612912809	-27.68255752731962	36.53607048104158	0.003362362819817504	17.6437414668687	0	0
5.16	-0.1040821521234849	-0.9538557865288921	147.67253135622	0	0.9399999999999999	0	4.31273947772631	-2.221589756303431	0	13.39034351389173	0.2337055822904778	-1.360496539840888	0	0	4.31273947772631	-2.221589756303431	0	13.39034351389173	0.2337055822904778	-1.360496539840888	0	0	2.272372205488346	-0.09493383787074737	-3.615206201913561	0	-0.5221765353527948	0	18.28979552066479	17.66334662813115	0	0	57.34773698156506	-27.80649594919799	36.5536176347554	0.003364307479842592	17.66334662813115	0	0
